<svg id="Слой_1" data-name="Слой 1" xmlns="http://www.w3.org/2000/svg" xmlns:xlink="http://www.w3.org/1999/xlink" viewBox="0 0 610 686"><defs><style>.cls-1,.cls-10,.cls-2,.cls-3,.cls-5,.cls-6,.cls-7,.cls-8,.cls-9{stroke:#1d1d1b;stroke-miterlimit:10;stroke-width:10px;}.cls-1{fill:url(#Безымянный_градиент_2);}.cls-2{fill:#00a19a;}.cls-3{fill:#7d4e24;}.cls-4{fill:#1d1d1b;}.cls-5{fill:#e30613;}.cls-6{fill:#f39200;}.cls-7{fill:#ffed00;}.cls-8{fill:#009640;}.cls-9{fill:#312783;}.cls-10{fill:#951b81;}</style><linearGradient id="Безымянный_градиент_2" x1="305" y1="281" x2="305" y2="681" gradientUnits="userSpaceOnUse"><stop offset="0" stop-color="#fff"/><stop offset="0.99" stop-color="#1d1d1b"/></linearGradient></defs><rect class="cls-1" x="5" y="281" width="600" height="400"/><rect class="cls-2" x="405" y="331" width="150" height="150"/><rect class="cls-3" x="55" y="331" width="150" height="300"/><rect class="cls-4" x="170" y="466" width="10" height="30"/><path class="cls-5" d="M300,212.33h0V462.67h0c0,.17,0-.17,0,0,0,27.61-22.39,50.33-50,50.33s-50-22.72-50-50.33c0-.17,0,.17,0,0h0V212.33h0c0-.17,0,.17,0,0,0-27.61,22.39-50.33,50-50.33s50,22.72,50,50.33C300,212.5,300,212.16,300,212.33Z" transform="translate(-195 -157)"/><path class="cls-6" d="M400,212.33h0V462.67h0c0,.17,0-.17,0,0,0,27.61-22.39,50.33-50,50.33s-50-22.72-50-50.33c0-.17,0,.17,0,0h0V212.33h0c0-.17,0,.17,0,0,0-27.61,22.39-50.33,50-50.33s50,22.72,50,50.33C400,212.5,400,212.16,400,212.33Z" transform="translate(-195 -157)"/><path class="cls-7" d="M500,212.33h0V462.67h0c0,.17,0-.17,0,0,0,27.61-22.39,50.33-50,50.33s-50-22.72-50-50.33c0-.17,0,.17,0,0h0V212.33h0c0-.17,0,.17,0,0,0-27.61,22.39-50.33,50-50.33s50,22.72,50,50.33C500,212.5,500,212.16,500,212.33Z" transform="translate(-195 -157)"/><path class="cls-8" d="M600,212.33h0V462.67h0c0,.17,0-.17,0,0,0,27.61-22.39,50.33-50,50.33s-50-22.72-50-50.33c0-.17,0,.17,0,0h0V212.33h0c0-.17,0,.17,0,0,0-27.61,22.39-50.33,50-50.33s50,22.72,50,50.33C600,212.5,600,212.16,600,212.33Z" transform="translate(-195 -157)"/><path class="cls-9" d="M700,212.33h0V462.67h0c0,.17,0-.17,0,0,0,27.61-22.39,50.33-50,50.33s-50-22.72-50-50.33c0-.17,0,.17,0,0h0V212.33h0c0-.17,0,.17,0,0,0-27.61,22.39-50.33,50-50.33s50,22.72,50,50.33C700,212.5,700,212.16,700,212.33Z" transform="translate(-195 -157)"/><path class="cls-10" d="M800,212.33h0V462.67h0c0,.17,0-.17,0,0,0,27.61-22.39,50.33-50,50.33s-50-22.72-50-50.33c0-.17,0,.17,0,0h0V212.33h0c0-.17,0,.17,0,0,0-27.61,22.39-50.33,50-50.33s50,22.72,50,50.33C800,212.5,800,212.16,800,212.33Z" transform="translate(-195 -157)"/></svg>